<?xml version="1.0" encoding="utf-8" standalone="no"?>
<!DOCTYPE svg PUBLIC "-//W3C//DTD SVG 1.1//EN"
  "http://www.w3.org/Graphics/SVG/1.1/DTD/svg11.dtd">
<svg xmlns:xlink="http://www.w3.org/1999/xlink" width="433.312384pt" height="313.136396pt" viewBox="0 0 433.312384 313.136396" xmlns="http://www.w3.org/2000/svg" version="1.1">
 <metadata>
  <rdf:RDF xmlns:dc="http://purl.org/dc/elements/1.1/" xmlns:cc="http://creativecommons.org/ns#" xmlns:rdf="http://www.w3.org/1999/02/22-rdf-syntax-ns#">
   <cc:Work>
    <dc:type rdf:resource="http://purl.org/dc/dcmitype/StillImage"/>
    <dc:date>2026-07-17T10:53:10.482718</dc:date>
    <dc:format>image/svg+xml</dc:format>
    <dc:creator>
     <cc:Agent>
      <dc:title>Matplotlib v3.11.0, https://matplotlib.org/</dc:title>
     </cc:Agent>
    </dc:creator>
   </cc:Work>
  </rdf:RDF>
 </metadata>
 <defs>
  <style type="text/css">*{stroke-linejoin: round; stroke-linecap: butt}</style>
 </defs>
 <g id="figure_1">
  <g id="patch_1">
   <path d="M 0 313.136396 
L 433.312384 313.136396 
L 433.312384 0 
L 0 0 
z
" style="fill: #ffffff"/>
  </g>
  <g id="axes_1">
   <g id="line2d_1">
    <path d="M 137.682188 59.224799 
L 422.759284 59.224799 
" clip-path="url(#p36c4f136ad)" style="fill: none; stroke: #000000; stroke-width: 3; stroke-linecap: square"/>
   </g>
   <g id="line2d_2">
    <path d="M 137.682188 128.755798 
L 422.759284 128.755798 
" clip-path="url(#p36c4f136ad)" style="fill: none; stroke: #000000; stroke-width: 3; stroke-linecap: square"/>
   </g>
   <g id="line2d_3">
    <path d="M 137.682188 198.286797 
L 422.759284 198.286797 
" clip-path="url(#p36c4f136ad)" style="fill: none; stroke: #000000; stroke-width: 3; stroke-linecap: square"/>
   </g>
   <g id="line2d_4">
    <path d="M 137.682188 265.558039 
L 422.759284 265.558039 
" clip-path="url(#p36c4f136ad)" style="fill: none; stroke: #778899; stroke-width: 3; stroke-linecap: square"/>
   </g>
   <g id="line2d_5">
    <path d="M 137.682188 270.077554 
L 422.759284 270.077554 
" clip-path="url(#p36c4f136ad)" style="fill: none; stroke: #778899; stroke-width: 3; stroke-linecap: square"/>
   </g>
   <g id="patch_2">
    <path d="M 374.782895 251.999494 
L 392.860955 251.999494 
L 383.821925 265.036557 
z
" clip-path="url(#p36c4f136ad)" style="fill: #778899"/>
   </g>
   <g id="patch_3">
    <path d="M 130.729088 24.4593 
L -1607.545889 24.4593 
L -1607.545889 372.114295 
L 130.729088 372.114295 
z
" clip-path="url(#p36c4f136ad)" style="fill: #ffffff; stroke: #ffffff; stroke-width: 2.25; stroke-linejoin: miter"/>
   </g>
   <g id="line2d_6">
    <path d="M 244.759927 198.286797 
L 244.759927 59.224799 
" clip-path="url(#p36c4f136ad)" style="fill: none; stroke: #002d9c; stroke-width: 3; stroke-linecap: square"/>
   </g>
   <g id="line2d_7">
    <path d="M 314.290926 198.286797 
L 314.290926 128.755798 
" clip-path="url(#p36c4f136ad)" style="fill: none; stroke: #002d9c; stroke-width: 3; stroke-linecap: square"/>
   </g>
   <g id="line2d_8">
    <path d="M 386.081682 198.286797 
L 386.081682 251.999494 
" clip-path="url(#p36c4f136ad)" style="fill: none; stroke: #778899; stroke-width: 3; stroke-linecap: square"/>
   </g>
   <g id="line2d_9">
    <path d="M 381.562167 198.286797 
L 381.562167 251.999494 
" clip-path="url(#p36c4f136ad)" style="fill: none; stroke: #778899; stroke-width: 3; stroke-linecap: square"/>
   </g>
   <g id="patch_4">
    <path d="M 152.631353 220.884372 
L 197.826502 220.884372 
L 197.826502 175.689223 
L 152.631353 175.689223 
z
" clip-path="url(#p36c4f136ad)" style="fill: #a8a8a8; stroke: #a8a8a8; stroke-width: 2.25; stroke-linejoin: miter"/>
   </g>
   <g id="patch_5">
    <path d="M 244.759927 66.004072 
C 246.557811 66.004072 248.2823 65.289765 249.553596 64.018469 
C 250.824892 62.747173 251.539199 61.022683 251.539199 59.224799 
C 251.539199 57.426915 250.824892 55.702426 249.553596 54.43113 
C 248.2823 53.159834 246.557811 52.445527 244.759927 52.445527 
C 242.962043 52.445527 241.237553 53.159834 239.966257 54.43113 
C 238.694961 55.702426 237.980654 57.426915 237.980654 59.224799 
C 237.980654 61.022683 238.694961 62.747173 239.966257 64.018469 
C 241.237553 65.289765 242.962043 66.004072 244.759927 66.004072 
z
" clip-path="url(#p36c4f136ad)" style="fill: #002d9c; stroke: #002d9c; stroke-width: 2.25; stroke-linejoin: miter"/>
   </g>
   <g id="patch_6">
    <path d="M 244.759927 214.1051 
C 248.954989 214.1051 252.978798 212.438384 255.945155 209.472026 
C 258.911513 206.505669 260.578229 202.48186 260.578229 198.286797 
C 260.578229 194.091735 258.911513 190.067926 255.945155 187.101569 
C 252.978798 184.135211 248.954989 182.468495 244.759927 182.468495 
C 240.564864 182.468495 236.541055 184.135211 233.574698 187.101569 
C 230.60834 190.067926 228.941624 194.091735 228.941624 198.286797 
C 228.941624 202.48186 230.60834 206.505669 233.574698 209.472026 
C 236.541055 212.438384 240.564864 214.1051 244.759927 214.1051 
z
" clip-path="url(#p36c4f136ad)" style="fill: #002d9c; stroke: #002d9c; stroke-width: 3; stroke-linejoin: miter"/>
   </g>
   <g id="patch_7">
    <path d="M 314.290926 135.535071 
C 316.08881 135.535071 317.813299 134.820764 319.084595 133.549468 
C 320.355891 132.278172 321.070198 130.553682 321.070198 128.755798 
C 321.070198 126.957914 320.355891 125.233425 319.084595 123.962129 
C 317.813299 122.690833 316.08881 121.976526 314.290926 121.976526 
C 312.493042 121.976526 310.768552 122.690833 309.497256 123.962129 
C 308.22596 125.233425 307.511653 126.957914 307.511653 128.755798 
C 307.511653 130.553682 308.22596 132.278172 309.497256 133.549468 
C 310.768552 134.820764 312.493042 135.535071 314.290926 135.535071 
z
" clip-path="url(#p36c4f136ad)" style="fill: #002d9c; stroke: #002d9c; stroke-width: 2.25; stroke-linejoin: miter"/>
   </g>
   <g id="patch_8">
    <path d="M 314.290926 214.1051 
C 318.485988 214.1051 322.509797 212.438384 325.476154 209.472026 
C 328.442512 206.505669 330.109228 202.48186 330.109228 198.286797 
C 330.109228 194.091735 328.442512 190.067926 325.476154 187.101569 
C 322.509797 184.135211 318.485988 182.468495 314.290926 182.468495 
C 310.095863 182.468495 306.072054 184.135211 303.105697 187.101569 
C 300.139339 190.067926 298.472623 194.091735 298.472623 198.286797 
C 298.472623 202.48186 300.139339 206.505669 303.105697 209.472026 
C 306.072054 212.438384 310.095863 214.1051 314.290926 214.1051 
z
" clip-path="url(#p36c4f136ad)" style="fill: #002d9c; stroke: #002d9c; stroke-width: 3; stroke-linejoin: miter"/>
   </g>
   <g id="patch_9">
    <path d="M 361.22435 220.884372 
L 406.419499 220.884372 
L 406.419499 175.689223 
L 361.22435 175.689223 
z
" clip-path="url(#p36c4f136ad)" style="fill: #a8a8a8; stroke: #a8a8a8; stroke-width: 2.25; stroke-linejoin: miter"/>
   </g>
   <g id="patch_10">
    <path d="M 399.640227 205.06607 
C 399.640227 200.872404 397.972523 196.84621 395.007154 193.880841 
C 392.041784 190.915472 388.01559 189.247768 383.821925 189.247768 
C 379.628259 189.247768 375.602065 190.915472 372.636696 193.880841 
C 369.671327 196.84621 368.003622 200.872404 368.003622 205.06607 
" clip-path="url(#p36c4f136ad)" style="fill: none; stroke: #000000; stroke-width: 3; stroke-linejoin: miter"/>
   </g>
   <g id="line2d_10">
    <path d="M 383.821925 205.06607 
L 399.640227 189.247768 
" clip-path="url(#p36c4f136ad)" style="fill: none; stroke: #000000; stroke-width: 3; stroke-linecap: square"/>
   </g>
   <g id="line2d_11">
    <path d="M 244.759927 207.325827 
L 244.759927 189.247768 
" clip-path="url(#p36c4f136ad)" style="fill: none; stroke: #ffffff; stroke-width: 3; stroke-linecap: square"/>
   </g>
   <g id="line2d_12">
    <path d="M 235.720897 198.286797 
L 253.798956 198.286797 
" clip-path="url(#p36c4f136ad)" style="fill: none; stroke: #ffffff; stroke-width: 3; stroke-linecap: square"/>
   </g>
   <g id="line2d_13">
    <path d="M 314.290926 207.325827 
L 314.290926 189.247768 
" clip-path="url(#p36c4f136ad)" style="fill: none; stroke: #ffffff; stroke-width: 3; stroke-linecap: square"/>
   </g>
   <g id="line2d_14">
    <path d="M 305.251896 198.286797 
L 323.329956 198.286797 
" clip-path="url(#p36c4f136ad)" style="fill: none; stroke: #ffffff; stroke-width: 3; stroke-linecap: square"/>
   </g>
   <g id="text_1">
    <g clip-path="url(#p36c4f136ad)">
     <!-- ${data}_{0}$ -->
     <g transform="translate(57.232238 65.559443) scale(0.24375 -0.24375)">
      <defs>
       <path id="DejaVuSans-Oblique-47" d="M 2675 525 
Q 2444 222 2128 65 
Q 1813 -91 1428 -91 
Q 903 -91 598 267 
Q 294 625 294 1247 
Q 294 1766 478 2236 
Q 663 2706 1013 3078 
Q 1244 3325 1534 3454 
Q 1825 3584 2144 3584 
Q 2481 3584 2739 3421 
Q 2997 3259 3138 2956 
L 3513 4863 
L 4091 4863 
L 3144 0 
L 2566 0 
L 2675 525 
z
M 891 1350 
Q 891 897 1095 644 
Q 1300 391 1663 391 
Q 1931 391 2161 520 
Q 2391 650 2566 903 
Q 2750 1166 2856 1509 
Q 2963 1853 2963 2188 
Q 2963 2622 2758 2865 
Q 2553 3109 2194 3109 
Q 1922 3109 1687 2981 
Q 1453 2853 1288 2613 
Q 1106 2353 998 2009 
Q 891 1666 891 1350 
z
" transform="scale(0.015625)"/>
       <path id="DejaVuSans-Oblique-44" d="M 3438 1997 
L 3047 0 
L 2472 0 
L 2578 531 
Q 2325 219 2001 64 
Q 1678 -91 1281 -91 
Q 834 -91 548 182 
Q 263 456 263 884 
Q 263 1497 752 1853 
Q 1241 2209 2100 2209 
L 2900 2209 
L 2931 2363 
Q 2938 2388 2941 2417 
Q 2944 2447 2944 2509 
Q 2944 2788 2717 2942 
Q 2491 3097 2081 3097 
Q 1800 3097 1504 3025 
Q 1209 2953 897 2809 
L 997 3341 
Q 1322 3463 1633 3523 
Q 1944 3584 2234 3584 
Q 2853 3584 3176 3315 
Q 3500 3047 3500 2534 
Q 3500 2431 3484 2292 
Q 3469 2153 3438 1997 
z
M 2816 1759 
L 2241 1759 
Q 1534 1759 1195 1570 
Q 856 1381 856 984 
Q 856 709 1029 553 
Q 1203 397 1509 397 
Q 1978 397 2328 733 
Q 2678 1069 2791 1631 
L 2816 1759 
z
" transform="scale(0.015625)"/>
       <path id="DejaVuSans-Oblique-57" d="M 2706 3500 
L 2619 3053 
L 1472 3053 
L 1100 1153 
Q 1081 1047 1072 975 
Q 1063 903 1063 863 
Q 1063 663 1183 572 
Q 1303 481 1569 481 
L 2150 481 
L 2053 0 
L 1503 0 
Q 991 0 739 200 
Q 488 400 488 806 
Q 488 878 497 964 
Q 506 1050 525 1153 
L 897 3053 
L 409 3053 
L 500 3500 
L 978 3500 
L 1172 4494 
L 1747 4494 
L 1556 3500 
L 2706 3500 
z
" transform="scale(0.015625)"/>
       <path id="DejaVuSans-13" d="M 2034 4250 
Q 1547 4250 1301 3770 
Q 1056 3291 1056 2328 
Q 1056 1369 1301 889 
Q 1547 409 2034 409 
Q 2525 409 2770 889 
Q 3016 1369 3016 2328 
Q 3016 3291 2770 3770 
Q 2525 4250 2034 4250 
z
M 2034 4750 
Q 2819 4750 3233 4129 
Q 3647 3509 3647 2328 
Q 3647 1150 3233 529 
Q 2819 -91 2034 -91 
Q 1250 -91 836 529 
Q 422 1150 422 2328 
Q 422 3509 836 4129 
Q 1250 4750 2034 4750 
z
" transform="scale(0.015625)"/>
      </defs>
      <use xlink:href="#DejaVuSans-Oblique-47" transform="translate(0 0.015625)"/>
      <use xlink:href="#DejaVuSans-Oblique-44" transform="translate(63.476562 0.015625)"/>
      <use xlink:href="#DejaVuSans-Oblique-57" transform="translate(124.755859 0.015625)"/>
      <use xlink:href="#DejaVuSans-Oblique-44" transform="translate(163.964844 0.015625)"/>
      <use xlink:href="#DejaVuSans-13" transform="translate(225.244141 -14.984326) scale(0.7)"/>
     </g>
    </g>
   </g>
   <g id="text_2">
    <g clip-path="url(#p36c4f136ad)">
     <!-- ${data}_{1}$ -->
     <g transform="translate(57.232238 135.090442) scale(0.24375 -0.24375)">
      <defs>
       <path id="DejaVuSans-14" d="M 794 531 
L 1825 531 
L 1825 4091 
L 703 3866 
L 703 4441 
L 1819 4666 
L 2450 4666 
L 2450 531 
L 3481 531 
L 3481 0 
L 794 0 
L 794 531 
z
" transform="scale(0.015625)"/>
      </defs>
      <use xlink:href="#DejaVuSans-Oblique-47" transform="translate(0 0.015625)"/>
      <use xlink:href="#DejaVuSans-Oblique-44" transform="translate(63.476562 0.015625)"/>
      <use xlink:href="#DejaVuSans-Oblique-57" transform="translate(124.755859 0.015625)"/>
      <use xlink:href="#DejaVuSans-Oblique-44" transform="translate(163.964844 0.015625)"/>
      <use xlink:href="#DejaVuSans-14" transform="translate(225.244141 -14.984326) scale(0.7)"/>
     </g>
    </g>
   </g>
   <g id="text_3">
    <g clip-path="url(#p36c4f136ad)">
     <!-- ${ancilla}$ -->
     <g transform="translate(44.557238 204.621441) scale(0.24375 -0.24375)">
      <defs>
       <path id="DejaVuSans-Oblique-51" d="M 3566 2113 
L 3156 0 
L 2578 0 
L 2988 2091 
Q 3016 2238 3031 2350 
Q 3047 2463 3047 2528 
Q 3047 2791 2881 2937 
Q 2716 3084 2419 3084 
Q 1956 3084 1622 2776 
Q 1288 2469 1184 1941 
L 800 0 
L 225 0 
L 903 3500 
L 1478 3500 
L 1363 2950 
Q 1603 3253 1940 3418 
Q 2278 3584 2650 3584 
Q 3113 3584 3367 3334 
Q 3622 3084 3622 2631 
Q 3622 2519 3608 2391 
Q 3594 2263 3566 2113 
z
" transform="scale(0.015625)"/>
       <path id="DejaVuSans-Oblique-46" d="M 3431 3366 
L 3316 2797 
Q 3109 2947 2876 3022 
Q 2644 3097 2394 3097 
Q 2119 3097 1870 3000 
Q 1622 2903 1453 2725 
Q 1184 2453 1037 2087 
Q 891 1722 891 1331 
Q 891 859 1127 628 
Q 1363 397 1844 397 
Q 2081 397 2348 469 
Q 2616 541 2906 684 
L 2797 116 
Q 2547 13 2283 -39 
Q 2019 -91 1741 -91 
Q 1044 -91 669 257 
Q 294 606 294 1253 
Q 294 1797 489 2255 
Q 684 2713 1069 3078 
Q 1331 3328 1684 3456 
Q 2038 3584 2456 3584 
Q 2700 3584 2940 3529 
Q 3181 3475 3431 3366 
z
" transform="scale(0.015625)"/>
       <path id="DejaVuSans-Oblique-4c" d="M 1172 4863 
L 1747 4863 
L 1606 4134 
L 1031 4134 
L 1172 4863 
z
M 909 3500 
L 1484 3500 
L 800 0 
L 225 0 
L 909 3500 
z
" transform="scale(0.015625)"/>
       <path id="DejaVuSans-Oblique-4f" d="M 1172 4863 
L 1747 4863 
L 800 0 
L 225 0 
L 1172 4863 
z
" transform="scale(0.015625)"/>
      </defs>
      <use xlink:href="#DejaVuSans-Oblique-44" transform="translate(0 0.015625)"/>
      <use xlink:href="#DejaVuSans-Oblique-51" transform="translate(61.279297 0.015625)"/>
      <use xlink:href="#DejaVuSans-Oblique-46" transform="translate(124.658203 0.015625)"/>
      <use xlink:href="#DejaVuSans-Oblique-4c" transform="translate(179.638672 0.015625)"/>
      <use xlink:href="#DejaVuSans-Oblique-4f" transform="translate(207.421875 0.015625)"/>
      <use xlink:href="#DejaVuSans-Oblique-4f" transform="translate(235.205078 0.015625)"/>
      <use xlink:href="#DejaVuSans-Oblique-44" transform="translate(262.988281 0.015625)"/>
     </g>
    </g>
   </g>
   <g id="text_4">
    <g clip-path="url(#p36c4f136ad)">
     <!-- ${check}$ -->
     <g transform="translate(52.357238 274.15244) scale(0.24375 -0.24375)">
      <defs>
       <path id="DejaVuSans-Oblique-4b" d="M 3566 2113 
L 3156 0 
L 2578 0 
L 2988 2091 
Q 3016 2238 3031 2350 
Q 3047 2463 3047 2528 
Q 3047 2791 2881 2937 
Q 2716 3084 2419 3084 
Q 1956 3084 1617 2771 
Q 1278 2459 1178 1941 
L 800 0 
L 225 0 
L 1172 4863 
L 1747 4863 
L 1375 2950 
Q 1594 3244 1934 3414 
Q 2275 3584 2650 3584 
Q 3113 3584 3367 3334 
Q 3622 3084 3622 2631 
Q 3622 2519 3608 2391 
Q 3594 2263 3566 2113 
z
" transform="scale(0.015625)"/>
       <path id="DejaVuSans-Oblique-48" d="M 3078 2063 
Q 3088 2113 3092 2166 
Q 3097 2219 3097 2272 
Q 3097 2653 2873 2875 
Q 2650 3097 2266 3097 
Q 1838 3097 1509 2826 
Q 1181 2556 1013 2059 
L 3078 2063 
z
M 3578 1613 
L 903 1613 
Q 884 1494 878 1425 
Q 872 1356 872 1306 
Q 872 872 1139 634 
Q 1406 397 1894 397 
Q 2269 397 2603 481 
Q 2938 566 3225 728 
L 3116 159 
Q 2806 34 2476 -28 
Q 2147 -91 1806 -91 
Q 1078 -91 686 257 
Q 294 606 294 1247 
Q 294 1794 489 2264 
Q 684 2734 1063 3103 
Q 1306 3334 1642 3459 
Q 1978 3584 2356 3584 
Q 2950 3584 3301 3228 
Q 3653 2872 3653 2272 
Q 3653 2128 3634 1964 
Q 3616 1800 3578 1613 
z
" transform="scale(0.015625)"/>
       <path id="DejaVuSans-Oblique-4e" d="M 1172 4863 
L 1747 4863 
L 1197 2028 
L 3169 3500 
L 3916 3500 
L 1716 1825 
L 3322 0 
L 2625 0 
L 1131 1709 
L 800 0 
L 225 0 
L 1172 4863 
z
" transform="scale(0.015625)"/>
      </defs>
      <use xlink:href="#DejaVuSans-Oblique-46" transform="translate(0 0.015625)"/>
      <use xlink:href="#DejaVuSans-Oblique-4b" transform="translate(54.980469 0.015625)"/>
      <use xlink:href="#DejaVuSans-Oblique-48" transform="translate(118.359375 0.015625)"/>
      <use xlink:href="#DejaVuSans-Oblique-46" transform="translate(179.882812 0.015625)"/>
      <use xlink:href="#DejaVuSans-Oblique-4e" transform="translate(234.863281 0.015625)"/>
     </g>
    </g>
   </g>
   <g id="text_5">
    <g clip-path="url(#p36c4f136ad)">
     <!-- $\mathrm{\left|0\right\rangle}$ -->
     <g transform="translate(162.651427 203.354512) scale(0.195 -0.195)">
      <defs>
       <path id="DejaVuSans-5f" d="M 1344 4891 
L 1344 -1509 
L 813 -1509 
L 813 4891 
L 1344 4891 
z
" transform="scale(0.015625)"/>
       <path id="DejaVuSans-1048" d="M 1925 2006 
L 1044 -844 
L 513 -844 
L 1394 2006 
L 513 4856 
L 1044 4856 
L 1925 2006 
z
" transform="scale(0.015625)"/>
      </defs>
      <use xlink:href="#DejaVuSans-5f" transform="translate(0 16.546875) scale(0.756406)"/>
      <use xlink:href="#DejaVuSans-13" transform="translate(25.48439 0.125)"/>
      <use xlink:href="#DejaVuSans-1048" transform="translate(89.107437 0.125)"/>
     </g>
    </g>
   </g>
  </g>
 </g>
 <defs>
  <clipPath id="p36c4f136ad">
   <rect x="3.6" y="3.6" width="426.112384" height="305.936396"/>
  </clipPath>
 </defs>
</svg>
